<?xml version="1.0" encoding="utf-8"?>
<!-- Generator: Adobe Illustrator 26.2.1, SVG Export Plug-In . SVG Version: 6.00 Build 0)  -->
<svg version="1.1" id="Layer_1" xmlns="http://www.w3.org/2000/svg" xmlns:xlink="http://www.w3.org/1999/xlink" x="0px" y="0px"
	 viewBox="0 0 363.6 447.6" style="enable-background:new 0 0 363.6 447.6;" xml:space="preserve">
<g>
	<path d="M0.7,420.5h363v27.1H0.7L0.7,420.5z M93.2,0L78,22.5l44.3,30.4L0,232.7l202.3,137.5l137.5-202.3L93.2,0L93.2,0z
		 M144.8,68.1l157.4,107.1L37.7,225.5L144.8,68.1L144.8,68.1z M343.1,212.2c11.2-2.6,5.9,21.8,6.6,47.6c0.7,25.8-4,41.7-14.5,43.6
		c-11.2,2.6-26.4-10.6-5.9-45C349.8,223.5,331.9,214.2,343.1,212.2L343.1,212.2z"/>
</g>
</svg>
