<?xml version="1.0" encoding="utf-8"?>
<!-- Generator: Adobe Illustrator 26.2.1, SVG Export Plug-In . SVG Version: 6.00 Build 0)  -->
<svg version="1.1" id="Layer_1" xmlns="http://www.w3.org/2000/svg" xmlns:xlink="http://www.w3.org/1999/xlink" x="0px" y="0px"
	 viewBox="0 0 326.7 326.7" style="enable-background:new 0 0 326.7 326.7;" xml:space="preserve">
<g>
	<path d="M295.9,0c8.2-0.1,16.1,3.2,21.8,8.9c5.8,5.8,9,13.7,8.9,21.8v265.1c0.1,8.2-3.2,16.1-8.9,21.8c-5.8,5.8-13.7,9-21.8,8.9
		H30.8c-8.2,0.1-16.1-3.2-21.8-8.9c-5.8-5.8-9-13.7-8.9-21.8V30.8C-0.1,22.6,3.2,14.7,9,9c5.8-5.8,13.7-9,21.8-8.9H295.9z M81.7,250
		H30.8v45.9h50.9V250z M295.7,250H112.3v45.9h183.5L295.7,250z M81.7,173.5H30.8v46l50.9,0V173.5z M295.7,173.5H112.3v46l183.5,0
		L295.7,173.5z M81.7,97.1H30.8v45.9l50.9,0V97.1z M295.7,97.1H112.3v45.9l183.5,0L295.7,97.1z"/>
</g>
</svg>
